<?xml version="1.0" encoding="UTF-8" standalone="no"?>
<svg xmlns="http://www.w3.org/2000/svg" width="368" height="368" viewBox="0 0 368 368" role="img" aria-labelledby="title desc">
  <title id="title">EkSaha White Icon</title>
  <desc id="desc">Vectorized EkSaha technology brand logo.</desc>
  <g transform="translate(18.000 19.500)">
    <path d="M 162.000 -0.008 L 178.000 0.794 L 192.000 2.837 L 207.875 7.000 L 219.000 10.841 L 230.000 15.743 L 247.000 25.664 L 249.705 29.000 L 249.677 34.000 L 244.000 42.909 L 242.000 44.180 L 238.000 44.443 L 236.000 43.828 L 222.000 35.789 L 215.000 32.629 L 201.000 27.553 L 189.000 24.479 L 175.000 22.511 L 162.000 21.902 L 151.000 22.352 L 134.000 24.789 L 120.000 28.518 L 112.000 31.339 L 100.000 36.623 L 89.000 42.585 L 81.000 47.695 L 70.231 56.000 L 61.555 64.000 L 52.585 74.000 L 46.534 82.000 L 37.822 96.000 L 32.353 107.000 L 27.462 120.000 L 24.314 131.000 L 21.712 146.000 L 20.782 159.000 L 21.062 172.000 L 22.483 184.000 L 25.457 198.000 L 29.716 211.000 L 34.465 222.000 L 39.582 232.000 L 46.495 243.000 L 56.828 256.000 L 67.000 266.525 L 77.264 275.000 L 83.000 279.100 L 94.000 286.150 L 103.068 291.000 L 112.000 295.063 L 120.000 298.044 L 130.000 301.183 L 139.000 303.256 L 152.000 305.256 L 163.000 306.033 L 181.000 305.284 L 189.000 304.254 L 199.000 302.207 L 218.000 296.173 L 231.787 290.000 L 243.982 283.000 L 255.000 275.252 L 268.000 263.863 L 276.347 255.000 L 286.264 242.000 L 295.205 227.000 L 300.198 216.000 L 304.200 205.000 L 307.294 194.000 L 309.273 183.000 L 310.481 165.000 L 310.080 153.000 L 308.208 139.000 L 304.162 123.000 L 297.918 106.000 L 298.304 103.000 L 299.342 101.000 L 301.000 99.634 L 310.000 95.480 L 314.000 95.801 L 317.469 99.000 L 322.317 111.000 L 327.148 127.000 L 330.300 143.000 L 331.473 158.000 L 331.342 173.000 L 329.316 191.000 L 325.280 208.000 L 321.166 220.000 L 313.102 238.000 L 304.286 253.000 L 296.353 264.000 L 284.157 278.000 L 268.000 292.479 L 256.000 301.086 L 240.000 310.278 L 224.000 317.334 L 212.000 321.366 L 196.000 325.229 L 182.000 327.230 L 167.000 327.917 L 151.000 327.303 L 132.000 324.308 L 117.000 320.298 L 103.000 315.131 L 90.000 309.078 L 78.000 302.291 L 66.000 294.244 L 52.509 283.000 L 40.680 271.000 L 31.763 260.000 L 21.767 245.000 L 14.907 232.000 L 7.822 215.000 L 3.699 201.000 L 0.820 187.000 L -0.212 179.000 L -0.422 173.000 L -0.379 152.000 L 0.814 140.000 L 3.944 124.000 L 8.886 108.000 L 15.725 92.000 L 22.262 80.000 L 32.388 65.000 L 43.367 52.000 L 56.000 39.910 L 68.000 30.568 L 82.000 21.551 L 99.202 13.000 L 116.000 6.969 L 131.000 3.130 L 146.000 0.808 L 162.000 -0.008 Z M 90.000 99.786 L 97.000 99.104 L 155.000 99.034 L 157.000 99.737 L 158.063 101.000 L 158.273 121.000 L 157.378 123.000 L 156.000 123.936 L 142.000 124.351 L 99.000 124.286 L 96.000 124.695 L 91.000 126.873 L 87.000 130.607 L 84.639 135.000 L 83.977 139.000 L 84.044 155.000 L 84.903 156.000 L 115.000 156.160 L 116.853 157.000 L 117.645 159.000 L 117.646 177.000 L 117.417 178.000 L 116.000 179.332 L 85.000 179.526 L 84.224 180.000 L 84.046 199.000 L 84.760 203.000 L 87.000 206.851 L 91.000 210.356 L 97.000 212.412 L 156.000 212.669 L 158.176 215.000 L 158.330 225.000 L 158.245 235.000 L 156.000 237.331 L 95.000 237.530 L 87.000 236.342 L 79.000 233.400 L 71.000 228.091 L 64.408 221.000 L 60.776 215.000 L 58.491 209.000 L 57.423 203.000 L 57.418 137.000 L 58.725 129.000 L 60.486 124.000 L 63.594 118.000 L 70.359 110.000 L 74.000 106.808 L 79.000 103.699 L 83.000 101.861 L 90.000 99.786 Z" fill="#FFF" fill-rule="evenodd" clip-rule="evenodd"/>
    <path d="M 273.000 44.813 L 298.000 44.774 L 300.731 46.000 L 301.615 48.000 L 301.576 73.000 L 300.730 75.000 L 299.000 76.269 L 293.000 76.459 L 273.000 76.445 L 272.000 76.328 L 270.016 75.000 L 269.059 73.000 L 269.122 48.000 L 271.000 45.514 L 273.000 44.813 Z M 209.000 100.996 L 269.000 100.962 L 272.000 101.852 L 273.548 104.000 L 273.703 123.000 L 273.000 124.445 L 271.000 125.948 L 209.000 126.381 L 204.021 128.000 L 200.000 130.873 L 197.575 134.000 L 195.720 139.000 L 195.601 144.000 L 196.580 148.000 L 199.000 151.926 L 203.000 155.159 L 209.000 157.061 L 244.000 157.189 L 252.000 158.407 L 260.000 161.576 L 266.000 165.475 L 270.077 169.000 L 276.280 177.000 L 279.662 185.000 L 281.266 194.000 L 280.707 204.000 L 278.359 212.000 L 274.000 219.781 L 268.000 226.488 L 260.000 232.283 L 253.000 235.371 L 249.000 236.435 L 242.000 237.394 L 178.000 237.501 L 176.000 237.286 L 173.690 235.000 L 173.560 216.000 L 174.617 214.000 L 176.000 212.924 L 179.000 212.547 L 243.000 212.338 L 247.000 211.225 L 250.503 209.000 L 253.334 206.000 L 255.315 202.000 L 256.125 198.000 L 256.056 195.000 L 255.303 192.000 L 252.467 187.000 L 248.000 183.453 L 242.000 181.733 L 207.000 181.613 L 203.000 181.267 L 198.000 180.074 L 191.000 177.254 L 184.000 172.409 L 179.705 168.000 L 174.514 160.000 L 171.435 152.000 L 170.612 148.000 L 170.341 139.000 L 171.390 132.000 L 172.541 128.000 L 176.483 120.000 L 182.309 113.000 L 187.000 108.776 L 190.000 106.755 L 199.000 102.834 L 203.000 101.732 L 209.000 100.996 Z M 128.000 156.568 L 130.000 156.162 L 147.000 156.176 L 148.893 157.000 L 149.614 158.000 L 149.841 162.000 L 149.784 177.000 L 149.000 178.675 L 147.000 179.543 L 129.000 179.424 L 127.812 179.000 L 126.892 178.000 L 126.707 177.000 L 126.702 159.000 L 126.800 158.000 L 128.000 156.568 Z" fill="#FFF" fill-rule="evenodd" clip-rule="evenodd"/>
  </g>
</svg>
