<?xml version="1.0" encoding="UTF-8" standalone="no"?>
<svg xmlns="http://www.w3.org/2000/svg" width="1502" height="365" viewBox="0 0 1502 365" role="img" aria-labelledby="title desc">
  <title id="title">EkSaha White Logo</title>
  <desc id="desc">Vectorized EkSaha technology brand logo.</desc>
  <g transform="translate(18 18)">
    <path d="M 162.000 -0.008 L 178.000 0.794 L 192.000 2.837 L 207.875 7.000 L 219.000 10.841 L 230.000 15.743 L 247.000 25.664 L 249.705 29.000 L 249.677 34.000 L 244.000 42.909 L 242.000 44.180 L 238.000 44.443 L 236.000 43.828 L 222.000 35.789 L 215.000 32.629 L 201.000 27.553 L 189.000 24.479 L 175.000 22.511 L 162.000 21.902 L 151.000 22.352 L 134.000 24.789 L 120.000 28.518 L 112.000 31.339 L 100.000 36.623 L 89.000 42.585 L 81.000 47.695 L 70.231 56.000 L 61.555 64.000 L 52.585 74.000 L 46.534 82.000 L 37.822 96.000 L 32.353 107.000 L 27.462 120.000 L 24.314 131.000 L 21.712 146.000 L 20.782 159.000 L 21.062 172.000 L 22.483 184.000 L 25.457 198.000 L 29.716 211.000 L 34.465 222.000 L 39.582 232.000 L 46.495 243.000 L 56.828 256.000 L 67.000 266.525 L 77.264 275.000 L 83.000 279.100 L 94.000 286.150 L 103.068 291.000 L 112.000 295.063 L 120.000 298.044 L 130.000 301.183 L 139.000 303.256 L 152.000 305.256 L 163.000 306.033 L 181.000 305.284 L 189.000 304.254 L 199.000 302.207 L 218.000 296.173 L 231.787 290.000 L 243.982 283.000 L 255.000 275.252 L 268.000 263.863 L 276.347 255.000 L 286.264 242.000 L 295.205 227.000 L 300.198 216.000 L 304.200 205.000 L 307.294 194.000 L 309.273 183.000 L 310.481 165.000 L 310.080 153.000 L 308.208 139.000 L 304.162 123.000 L 297.918 106.000 L 298.304 103.000 L 299.342 101.000 L 301.000 99.634 L 310.000 95.480 L 314.000 95.801 L 317.469 99.000 L 322.317 111.000 L 327.148 127.000 L 330.300 143.000 L 331.473 158.000 L 331.342 173.000 L 329.316 191.000 L 325.280 208.000 L 321.166 220.000 L 313.102 238.000 L 304.286 253.000 L 296.353 264.000 L 284.157 278.000 L 268.000 292.479 L 256.000 301.086 L 240.000 310.278 L 224.000 317.334 L 212.000 321.366 L 196.000 325.229 L 182.000 327.230 L 167.000 327.917 L 151.000 327.303 L 132.000 324.308 L 117.000 320.298 L 103.000 315.131 L 90.000 309.078 L 78.000 302.291 L 66.000 294.244 L 52.509 283.000 L 40.680 271.000 L 31.763 260.000 L 21.767 245.000 L 14.907 232.000 L 7.822 215.000 L 3.699 201.000 L 0.820 187.000 L -0.212 179.000 L -0.422 173.000 L -0.379 152.000 L 0.814 140.000 L 3.944 124.000 L 8.886 108.000 L 15.725 92.000 L 22.262 80.000 L 32.388 65.000 L 43.367 52.000 L 56.000 39.910 L 68.000 30.568 L 82.000 21.551 L 99.202 13.000 L 116.000 6.969 L 131.000 3.130 L 146.000 0.808 L 162.000 -0.008 Z M 834.000 52.991 L 847.000 52.241 L 861.000 52.591 L 876.000 54.572 L 891.000 58.677 L 903.000 63.885 L 914.000 70.699 L 922.401 78.000 L 930.536 88.000 L 930.000 89.515 L 905.000 112.255 L 904.000 112.122 L 894.000 102.805 L 888.000 98.718 L 881.000 94.964 L 876.000 92.770 L 866.000 89.879 L 853.000 88.306 L 838.000 88.843 L 827.000 91.675 L 821.000 94.748 L 817.000 98.196 L 813.422 103.000 L 811.854 107.000 L 811.087 113.000 L 811.858 119.000 L 814.461 124.000 L 820.000 129.268 L 826.000 132.552 L 834.000 135.477 L 883.000 146.821 L 897.000 151.399 L 905.000 154.835 L 915.000 160.861 L 922.277 167.000 L 929.298 176.000 L 933.268 184.000 L 935.089 190.000 L 936.360 197.000 L 936.725 205.000 L 936.233 213.000 L 935.068 219.000 L 932.253 228.000 L 929.300 234.000 L 926.107 239.000 L 922.211 244.000 L 919.000 247.164 L 913.000 252.444 L 907.000 256.507 L 900.000 260.287 L 893.000 263.271 L 877.000 267.622 L 860.000 269.712 L 843.000 269.786 L 824.000 267.604 L 807.000 263.509 L 794.000 258.463 L 781.000 251.179 L 770.000 242.235 L 760.555 231.000 L 760.516 230.000 L 761.467 229.000 L 787.000 205.506 L 788.000 205.505 L 795.000 212.439 L 801.000 217.347 L 814.000 225.098 L 822.000 228.350 L 828.000 230.182 L 838.000 232.269 L 846.000 233.298 L 859.000 233.301 L 867.000 232.227 L 875.000 230.031 L 881.000 227.305 L 885.000 224.532 L 888.517 221.000 L 891.614 216.000 L 892.895 210.000 L 892.953 206.000 L 892.254 202.000 L 890.402 198.000 L 889.000 196.142 L 883.000 190.692 L 877.000 187.523 L 872.000 185.648 L 858.000 181.846 L 821.000 173.256 L 811.000 170.120 L 799.000 165.013 L 787.000 157.289 L 780.609 151.000 L 774.854 143.000 L 770.876 134.000 L 768.823 126.000 L 767.887 118.000 L 767.863 112.000 L 768.878 104.000 L 770.761 97.000 L 773.000 91.192 L 776.799 84.000 L 779.661 80.000 L 784.978 74.000 L 790.000 69.482 L 802.000 61.853 L 809.000 58.788 L 819.000 55.609 L 834.000 52.991 Z M 406.000 54.626 L 558.000 54.358 L 566.000 54.414 L 567.050 55.000 L 567.337 93.000 L 566.000 94.609 L 449.521 95.000 L 448.900 96.000 L 449.000 138.164 L 450.000 139.042 L 504.000 139.015 L 505.000 139.602 L 505.589 141.000 L 505.544 174.000 L 505.382 175.000 L 504.000 176.162 L 450.000 176.138 L 448.854 177.000 L 449.220 228.000 L 450.000 228.430 L 454.000 228.454 L 566.000 228.483 L 567.071 229.000 L 567.387 230.000 L 567.371 261.000 L 567.000 265.620 L 565.000 266.207 L 545.000 266.252 L 407.000 266.241 L 406.000 265.889 L 405.540 265.000 L 405.467 255.000 L 405.485 67.000 L 405.517 56.000 L 406.000 54.626 Z M 596.000 54.374 L 636.000 54.326 L 637.284 55.000 L 637.131 176.000 L 638.508 179.000 L 640.409 181.000 L 640.526 182.000 L 643.393 185.000 L 643.523 186.000 L 645.420 188.000 L 645.526 189.000 L 648.418 192.000 L 648.526 193.000 L 651.395 196.000 L 651.525 197.000 L 653.424 199.000 L 653.526 200.000 L 656.000 202.639 L 657.000 202.574 L 662.475 197.000 L 663.000 195.588 L 678.475 180.000 L 678.613 179.000 L 679.578 178.000 L 681.000 176.607 L 683.000 176.404 L 754.036 265.000 L 754.000 266.102 L 705.000 266.210 L 657.000 203.949 L 656.000 203.367 L 638.403 222.000 L 637.201 224.000 L 637.000 265.580 L 636.000 266.234 L 595.719 266.000 L 595.385 67.000 L 595.458 55.000 L 596.000 54.374 Z M 1138.000 54.812 L 1140.000 54.356 L 1179.000 54.324 L 1180.364 55.000 L 1180.333 130.000 L 1181.000 130.822 L 1186.432 125.000 L 1193.000 119.852 L 1200.000 115.893 L 1205.000 113.704 L 1216.000 110.728 L 1223.000 109.773 L 1231.000 109.601 L 1244.000 110.765 L 1252.000 112.775 L 1260.000 115.759 L 1267.000 119.755 L 1271.000 122.671 L 1276.000 127.295 L 1279.087 131.000 L 1284.089 139.000 L 1287.375 147.000 L 1289.602 156.000 L 1290.718 165.000 L 1291.055 265.000 L 1290.479 266.000 L 1256.000 266.262 L 1249.000 265.922 L 1248.607 265.000 L 1248.610 176.000 L 1247.333 166.000 L 1245.419 161.000 L 1243.075 157.000 L 1240.000 153.430 L 1237.000 150.860 L 1233.000 148.619 L 1229.000 147.106 L 1223.000 145.772 L 1217.000 145.443 L 1211.000 145.909 L 1206.032 147.000 L 1199.000 149.565 L 1195.000 151.830 L 1191.000 154.954 L 1187.000 159.190 L 1183.877 164.000 L 1181.820 169.000 L 1180.347 177.000 L 1180.372 265.000 L 1180.000 265.888 L 1179.000 266.291 L 1139.000 266.292 L 1138.000 265.598 L 1138.000 54.812 Z M 90.000 99.786 L 97.000 99.104 L 155.000 99.034 L 157.000 99.737 L 158.063 101.000 L 158.273 121.000 L 157.378 123.000 L 156.000 123.936 L 142.000 124.351 L 99.000 124.286 L 96.000 124.695 L 91.000 126.873 L 87.000 130.607 L 84.639 135.000 L 83.977 139.000 L 84.044 155.000 L 84.903 156.000 L 115.000 156.160 L 116.853 157.000 L 117.645 159.000 L 117.646 177.000 L 117.417 178.000 L 116.000 179.332 L 85.000 179.526 L 84.224 180.000 L 84.046 199.000 L 84.760 203.000 L 87.000 206.851 L 91.000 210.356 L 97.000 212.412 L 156.000 212.669 L 158.176 215.000 L 158.330 225.000 L 158.245 235.000 L 156.000 237.331 L 95.000 237.530 L 87.000 236.342 L 79.000 233.400 L 71.000 228.091 L 64.408 221.000 L 60.776 215.000 L 58.491 209.000 L 57.423 203.000 L 57.418 137.000 L 58.725 129.000 L 60.486 124.000 L 63.594 118.000 L 70.359 110.000 L 74.000 106.808 L 79.000 103.699 L 83.000 101.861 L 90.000 99.786 Z M 1022.000 108.909 L 1045.000 108.864 L 1058.000 110.879 L 1069.000 113.862 L 1078.000 117.792 L 1086.000 122.743 L 1095.000 131.463 L 1100.040 139.000 L 1102.393 144.000 L 1105.465 154.000 L 1106.403 160.000 L 1107.031 170.000 L 1107.211 257.000 L 1107.056 265.000 L 1106.000 264.558 L 1105.561 265.000 L 1106.381 266.000 L 1106.000 266.205 L 1069.000 266.195 L 1067.741 263.000 L 1066.000 252.165 L 1065.000 252.463 L 1059.000 257.461 L 1051.000 262.211 L 1044.000 265.158 L 1036.000 267.404 L 1029.000 268.679 L 1019.000 269.493 L 1011.000 269.394 L 1001.000 268.401 L 989.000 265.518 L 978.000 260.394 L 973.000 257.036 L 969.000 253.550 L 964.426 248.000 L 961.924 244.000 L 958.543 236.000 L 956.679 225.000 L 956.654 219.000 L 957.755 211.000 L 959.528 205.000 L 963.720 197.000 L 968.000 191.788 L 975.000 185.736 L 982.000 181.641 L 992.000 177.770 L 1001.000 175.651 L 1010.000 174.404 L 1029.000 173.913 L 1042.000 174.522 L 1064.000 177.217 L 1065.000 176.677 L 1065.193 168.000 L 1064.183 162.000 L 1062.000 156.211 L 1060.000 153.209 L 1056.731 150.000 L 1050.000 145.842 L 1045.000 143.985 L 1037.000 142.472 L 1027.000 142.161 L 1018.000 142.953 L 1007.000 145.476 L 1001.000 147.631 L 996.000 149.880 L 984.000 156.576 L 965.055 132.000 L 965.000 130.761 L 973.000 124.730 L 983.000 118.967 L 990.000 115.925 L 996.000 113.848 L 1008.000 110.839 L 1022.000 108.909 Z M 1381.000 108.920 L 1403.000 108.779 L 1416.000 110.694 L 1430.000 114.686 L 1437.000 117.934 L 1446.000 123.846 L 1454.163 132.000 L 1459.141 140.000 L 1463.346 151.000 L 1465.392 163.000 L 1465.482 263.000 L 1465.000 266.204 L 1428.000 266.223 L 1426.677 265.000 L 1424.909 253.000 L 1424.000 252.415 L 1418.000 257.357 L 1410.000 262.226 L 1405.000 264.415 L 1396.000 267.135 L 1388.000 268.639 L 1379.000 269.466 L 1369.000 269.385 L 1361.000 268.637 L 1351.000 266.506 L 1343.000 263.665 L 1337.000 260.720 L 1333.000 258.075 L 1328.000 253.741 L 1324.632 250.000 L 1320.493 244.000 L 1316.656 234.000 L 1315.633 229.000 L 1315.316 224.000 L 1315.692 214.000 L 1317.696 206.000 L 1319.436 202.000 L 1321.707 198.000 L 1325.468 193.000 L 1330.000 188.486 L 1334.000 185.442 L 1345.000 179.615 L 1355.000 176.556 L 1365.000 174.670 L 1375.000 174.043 L 1388.000 173.930 L 1389.000 174.048 L 1389.482 175.000 L 1389.394 202.000 L 1389.000 202.408 L 1377.000 202.782 L 1368.000 204.922 L 1364.000 206.804 L 1361.275 209.000 L 1358.724 212.000 L 1357.684 214.000 L 1356.763 217.000 L 1356.501 220.000 L 1356.729 224.000 L 1357.626 227.000 L 1359.969 231.000 L 1364.000 234.494 L 1370.000 237.339 L 1379.000 239.327 L 1390.000 239.468 L 1401.000 237.437 L 1409.000 234.508 L 1414.000 231.505 L 1420.000 226.377 L 1423.902 221.000 L 1423.838 168.000 L 1423.136 163.000 L 1421.078 157.000 L 1418.485 153.000 L 1415.000 149.466 L 1409.000 145.856 L 1403.000 143.850 L 1393.000 142.314 L 1382.000 142.348 L 1372.000 143.834 L 1362.000 146.738 L 1353.000 150.674 L 1343.000 156.603 L 1342.000 156.441 L 1323.423 132.000 L 1323.363 131.000 L 1324.000 130.292 L 1333.000 123.742 L 1346.022 117.000 L 1362.000 111.877 L 1373.000 109.824 L 1381.000 108.920 Z M 1019.000 202.768 L 1010.000 204.841 L 1006.000 206.731 L 1003.000 208.840 L 1001.000 211.025 L 998.762 215.000 L 997.844 219.000 L 997.775 222.000 L 998.907 227.000 L 999.951 229.000 L 1002.000 231.694 L 1005.000 234.341 L 1009.000 236.480 L 1014.000 238.167 L 1023.000 239.529 L 1031.000 239.465 L 1043.000 237.274 L 1051.000 234.093 L 1057.000 230.238 L 1062.000 225.400 L 1065.112 221.000 L 1065.243 206.000 L 1065.151 205.000 L 1064.000 204.435 L 1043.000 202.750 L 1025.000 202.431 L 1019.000 202.768 Z" fill="#FFFFFF" fill-rule="evenodd" clip-rule="evenodd"/>
    <path d="M 273.000 44.813 L 298.000 44.774 L 300.731 46.000 L 301.615 48.000 L 301.576 73.000 L 300.730 75.000 L 299.000 76.269 L 293.000 76.459 L 273.000 76.445 L 272.000 76.328 L 270.016 75.000 L 269.059 73.000 L 269.122 48.000 L 271.000 45.514 L 273.000 44.813 Z M 209.000 100.996 L 269.000 100.962 L 272.000 101.852 L 273.548 104.000 L 273.703 123.000 L 273.000 124.445 L 271.000 125.948 L 209.000 126.381 L 204.021 128.000 L 200.000 130.873 L 197.575 134.000 L 195.720 139.000 L 195.601 144.000 L 196.580 148.000 L 199.000 151.926 L 203.000 155.159 L 209.000 157.061 L 244.000 157.189 L 252.000 158.407 L 260.000 161.576 L 266.000 165.475 L 270.077 169.000 L 276.280 177.000 L 279.662 185.000 L 281.266 194.000 L 280.707 204.000 L 278.359 212.000 L 274.000 219.781 L 268.000 226.488 L 260.000 232.283 L 253.000 235.371 L 249.000 236.435 L 242.000 237.394 L 178.000 237.501 L 176.000 237.286 L 173.690 235.000 L 173.560 216.000 L 174.617 214.000 L 176.000 212.924 L 179.000 212.547 L 243.000 212.338 L 247.000 211.225 L 250.503 209.000 L 253.334 206.000 L 255.315 202.000 L 256.125 198.000 L 256.056 195.000 L 255.303 192.000 L 252.467 187.000 L 248.000 183.453 L 242.000 181.733 L 207.000 181.613 L 203.000 181.267 L 198.000 180.074 L 191.000 177.254 L 184.000 172.409 L 179.705 168.000 L 174.514 160.000 L 171.435 152.000 L 170.612 148.000 L 170.341 139.000 L 171.390 132.000 L 172.541 128.000 L 176.483 120.000 L 182.309 113.000 L 187.000 108.776 L 190.000 106.755 L 199.000 102.834 L 203.000 101.732 L 209.000 100.996 Z M 702.000 108.709 L 744.000 108.733 L 744.361 109.000 L 744.150 110.000 L 682.876 175.000 L 682.462 176.000 L 681.000 176.528 L 679.494 178.000 L 678.525 179.000 L 678.470 180.000 L 662.524 196.000 L 662.000 197.497 L 657.000 202.470 L 656.000 202.462 L 653.530 200.000 L 653.471 199.000 L 651.531 197.000 L 651.482 196.000 L 648.531 193.000 L 648.482 192.000 L 645.531 189.000 L 645.482 188.000 L 643.531 186.000 L 643.484 185.000 L 640.531 182.000 L 640.481 181.000 L 638.531 179.000 L 638.486 178.000 L 637.606 177.000 L 700.000 110.155 L 702.000 108.709 Z M 522.000 140.714 L 524.000 140.152 L 552.000 140.024 L 554.395 141.000 L 554.981 143.000 L 555.043 172.000 L 554.547 174.000 L 553.000 175.127 L 552.000 175.208 L 534.000 175.299 L 523.000 175.239 L 521.245 174.000 L 520.859 173.000 L 520.880 143.000 L 522.000 140.714 Z M 128.000 156.568 L 130.000 156.162 L 147.000 156.176 L 148.893 157.000 L 149.614 158.000 L 149.841 162.000 L 149.784 177.000 L 149.000 178.675 L 147.000 179.543 L 129.000 179.424 L 127.812 179.000 L 126.892 178.000 L 126.707 177.000 L 126.702 159.000 L 126.800 158.000 L 128.000 156.568 Z M 1390.000 174.125 L 1415.000 174.440 L 1417.000 175.469 L 1417.575 177.000 L 1417.633 200.000 L 1417.000 202.075 L 1415.000 202.578 L 1390.000 202.410 L 1389.504 201.000 L 1389.500 188.000 L 1389.518 175.000 L 1390.000 174.125 Z" fill="#FFFFFF" fill-rule="evenodd" clip-rule="evenodd"/>
  </g>
</svg>

