<svg xmlns="http://www.w3.org/2000/svg" viewBox="0 0 64 64" role="img" aria-label="EkSaha">
  <rect width="64" height="64" rx="16" fill="#0A0F2C"/>
  <path d="M15 16h25c4.8 0 8.8 1.4 11.7 4.1 2.8 2.6 4.3 6.1 4.3 10.4 0 4.4-1.5 7.9-4.4 10.5-2.9 2.7-6.8 4-11.6 4H27.6v6.8H15V16zm12.6 10.1v8.9h11.7c2.4 0 4.1-.4 5.2-1.2 1.1-.8 1.7-1.9 1.7-3.3 0-1.4-.6-2.5-1.7-3.3-1.1-.8-2.9-1.1-5.2-1.1H27.6z" fill="#F8FAFC"/>
  <path d="M10 49.4c6.5-1.9 12.5-5.1 18-9.7 5.5-4.6 10-10.4 13.4-17.3h9.9C47.8 31 42.5 38.4 35.4 44.6 28.3 50.7 20.4 54.8 11.6 57L10 49.4z" fill="#028B7F"/>
  <path d="M12 13h18c9.2 0 16.6 2.6 22.3 7.8" fill="none" stroke="#67E8F9" stroke-width="4.5" stroke-linecap="round"/>
</svg>
